PathFileType	4	(X/Y/Z)	/Users/niels/Desktop/University/Third Semester/Perception and Action/Exam/Gymnastics Motion Tracking/Code for Gym Tracking/Analyzed Data/Webcam_Backflip/id5_2_trajectory_Sports2D/id5_2_trajectory_Sports2D_px_person00.trc
DataRate	CameraRate	NumFrames	NumMarkers	Units	OrigDataRate	OrigDataStartFrame	OrigNumFrames
29.770992366412216	29.770992366412216	7	22	m	29.770992366412216	49	131
Frame#	Time	Hip			RHip			RKnee			RAnkle			RBigToe			RSmallToe			RHeel			LHip			LKnee			LAnkle			LBigToe			LSmallToe			LHeel			Neck			Head			Nose			RShoulder			RElbow			RWrist			LShoulder			LElbow			LWrist		
		X1	Y1	Z1	X2	Y2	Z2	X3	Y3	Z3	X4	Y4	Z4	X5	Y5	Z5	X6	Y6	Z6	X7	Y7	Z7	X8	Y8	Z8	X9	Y9	Z9	X10	Y10	Z10	X11	Y11	Z11	X12	Y12	Z12	X13	Y13	Z13	X14	Y14	Z14	X15	Y15	Z15	X16	Y16	Z16	X17	Y17	Z17	X18	Y18	Z18	X19	Y19	Z19	X20	Y20	Z20	X21	Y21	Z21	X22	Y22	Z22
49	1.6458974358974356	0.9219374972612612	-0.6249841837314696	0.0	0.9039883456706991	-0.62929592018477	0.0	0.9678459443700484	-0.7463271852757725	0.0	0.9289738112365543	-0.8756174505993329	0.0	0.9802822012945405	-0.8847410095748149	0.0	0.9663982570055634	-0.8920337960887904	0.0	0.9154387542679219	-0.8912478863529815	0.0	0.9423041442098017	-0.6216805198643094	0.0	0.9972566741025909	-0.73102504005197	0.0	0.9199144829876985	-0.8287720717423637	0.0	0.9596885522169419	-0.8611215129966567	0.0	0.9543747047227537	-0.854792188026567	0.0	0.900829785724158	-0.8376079386401624	0.0	0.9096635135841181	-0.4439598274231042	0.0	0.9381393424530043	-0.3645579097195141	0.0	0.9526739307252737	-0.4174500796948348	0.0	0.8758640452727788	-0.4583380481183234	0.0	0.8771756988320778	-0.4856416070453289	0.0	0.9103892855569331	-0.4534861333026364	0.0	0.9345423382756753	-0.4613816152802604	0.0	0.9842350166631559	-0.4660670182263393	0.0	1.0398708829373704	-0.431656478367052	0.0
50	1.6794871794871793	0.9191954781738941	-0.6198820218991664	0.0	0.9026081123063736	-0.6227108020377011	0.0	0.9617242967192807	-0.7423639162106099	0.0	0.928410870142187	-0.8744666274015588	0.0	0.9800265356044167	-0.8836497658431449	0.0	0.9670328540198787	-0.8908461053540166	0.0	0.9155983026396293	-0.8902339755485805	0.0	0.9385586487759576	-0.6164137688367327	0.0	0.9875724831796858	-0.7303947580460465	0.0	0.9045407850355953	-0.8244110940720063	0.0	0.9424650108975922	-0.859224099165358	0.0	0.936987516836394	-0.8531403316490656	0.0	0.885653373998395	-0.8323472288896943	0.0	0.9036677950150855	-0.43834344883602355	0.0	0.9309342740923564	-0.3578351681788863	0.0	0.9462644391297078	-0.4104984815662717	0.0	0.8706375537545876	-0.4523957703284372	0.0	0.8672088535111949	-0.4776715204001429	0.0	0.8923803985576853	-0.4396083395972413	0.0	0.9284756683778814	-0.45628099399292116	0.0	0.9787272615070296	-0.4609012252540546	0.0	1.0327474784945525	-0.4207540415685134	0.0
51	1.713076923076923	0.9159257712099966	-0.615971666700077	0.0	0.9010657838999238	-0.6175104235595794	0.0	0.9563456110963906	-0.7390058361303756	0.0	0.9276383539862872	-0.8730322269488455	0.0	0.9793012819618684	-0.8825263126494481	0.0	0.9671801437056183	-0.8894760503554687	0.0	0.9155758090871052	-0.8888190828649751	0.0	0.9336986103400882	-0.6122319323809962	0.0	0.9759744155242197	-0.730462141783555	0.0	0.8885175956188839	-0.8216586366003998	0.0	0.9243803411862512	-0.8587424083505166	0.0	0.9183929572560775	-0.8528506312554657	0.0	0.8700949393769364	-0.8294690155939052	0.0	0.8978578047083984	-0.4342761633801198	0.0	0.9245371561302338	-0.3526869925127694	0.0	0.9403845495190174	-0.40525215397754405	0.0	0.8660056381755892	-0.4479031005383601	0.0	0.8566453154102954	-0.47468938077609524	0.0	0.8762840422074634	-0.4328752545936095	0.0	0.9221475575362477	-0.45284161071996126	0.0	0.9729263664655539	-0.45967291743136013	0.0	1.026009137142267	-0.41457251578456744	0.0
52	1.7466666666666664	0.9120658771101372	-0.6134032411139979	0.0	0.8992040402960882	-0.613925190195071	0.0	0.9517287950847836	-0.7367568825748896	0.0	0.9267812887576831	-0.871657894024015	0.0	0.9781039244579299	-0.8816384833360548	0.0	0.9667899146878371	-0.8882300259553828	0.0	0.9154305519481791	-0.8874722218095058	0.0	0.9276145922509118	-0.6094576041224427	0.0	0.9622013801169208	-0.7315129422293064	0.0	0.8733357363777774	-0.8219292249104441	0.0	0.9081464371466036	-0.860122213427467	0.0	0.9012563787597027	-0.8543697846973045	0.0	0.85562191175367	-0.8305109575208839	0.0	0.8923958643199136	-0.43159514427466245	0.0	0.9188401593794829	-0.34890060458937544	0.0	0.934999050310142	-0.4013970538131606	0.0	0.8615610129338441	-0.44478528021536906	0.0	0.845431106961462	-0.4764915838997156	0.0	0.8623793978458266	-0.4330318369572283	0.0	0.9160390250788424	-0.45095516731341706	0.0	0.9669120450947037	-0.46220337560385666	0.0	1.019708435254884	-0.41313239638870825	0.0
53	1.78025641025641	0.9075969137885012	-0.6123503305163126	0.0	0.8968408688002453	-0.6121534746557464	0.0	0.9477859035236221	-0.7358707329553233	0.0	0.9259669161312555	-0.870666475701235	0.0	0.9767467150967102	-0.8811082659177121	0.0	0.9661041166969071	-0.887350118586752	0.0	0.9152403552855686	-0.8866260580206118	0.0	0.9204678701172682	-0.6084777673335234	0.0	0.9467058861474239	-0.7335248690167944	0.0	0.8601091455956331	-0.8258953137729687	0.0	0.8957304138185325	-0.8633796929423214	0.0	0.887820614709094	-0.8576878727172368	0.0	0.8434139920350413	-0.835942850887529	0.0	0.8874088563846146	-0.43023057516667584	0.0	0.9136680865318081	-0.3465549613345511	0.0	0.9299719426291844	-0.3989236689429291	0.0	0.8569385549427266	-0.44324459013571543	0.0	0.8340864212771192	-0.4822215113155071	0.0	0.8504456154227791	-0.43968593815888124	0.0	0.9105688518898264	-0.4506142967404692	0.0	0.9605196350175281	-0.468313082540851	0.0	1.0136542821563796	-0.41672295062886855	0.0
54	1.8138461538461537	0.90254699231741	-0.6129564473154704	0.0	0.8937869700267584	-0.6123500467244699	0.0	0.9444364281961783	-0.7362560142295096	0.0	0.9252369208776106	-0.8702955511824466	0.0	0.975645000015651	-0.8808573021105004	0.0	0.9654798487277871	-0.886868654138984	0.0	0.9150090335622876	-0.8865652534698102	0.0	0.9126453693511817	-0.6095542415218199	0.0	0.9306181082361945	-0.7361898032326281	0.0	0.8494244166769191	-0.8332079861325665	0.0	0.8878085598804002	-0.8681219795915636	0.0	0.8791565459614303	-0.8623275502484221	0.0	0.8340715048041923	-0.8450109456527617	0.0	0.882962153675936	-0.43017044715294334	0.0	0.9088367939950975	-0.34589884154794054	0.0	0.925138321013864	-0.3980908122089173	0.0	0.852147227274859	-0.443626259760346	0.0	0.8235372328406462	-0.4906003248301199	0.0	0.839950891382432	-0.4524552122472598	0.0	0.9058638944600166	-0.45180269299321557	0.0	0.9534077495157659	-0.4777154285307891	0.0	1.0075091078877083	-0.42572100864758766	0.0
55	1.8474358974358973	0.8970005149252029	-0.6152250514056167	0.0	0.8899369130485226	-0.6145197535262443	0.0	0.9417162241299859	-0.737506224786326	0.0	0.9246032492009411	-0.8705720360220675	0.0	0.9749564110735515	-0.8807493401832414	0.0	0.96508772000659	-0.8866848240654077	0.0	0.9147127909489577	-0.8873044622598323	0.0	0.9045705298215154	-0.6126249686968612	0.0	0.9152514663721403	-0.7391561927180375	0.0	0.8413667225242664	-0.8426749137092526	0.0	0.8837649191072875	-0.8736022741645723	0.0	0.874861771505539	-0.8675571244780177	0.0	0.8275422777676138	-0.856093737921681	0.0	0.879076928836937	-0.43137332168490644	0.0	0.9042528245967311	-0.34709268382405484	0.0	0.9204491404212286	-0.3991306628814226	0.0	0.8475503519020605	-0.4460169698011497	0.0	0.8146911828307694	-0.5002375157486622	0.0	0.8304367092297597	-0.470783843008186	0.0	0.9017342182414344	-0.4544383519596931	0.0	0.9452935010124632	-0.48977560762085487	0.0	1.00108802913478	-0.44020575269418216	0.0
